<?xml version="1.0" encoding="UTF-8"?><svg xmlns="http://www.w3.org/2000/svg" xmlns:xlink="http://www.w3.org/1999/xlink" version="1.1" x="0px" y="0px" viewBox="0 0 32 32" xml:space="preserve"><g id="OUTLINE_copy"><g fill="#414752"><path d="M9.919 12.125c-.61 0-1.106.495-1.106 1.106v4.422a1.106 1.106 0 0 0 2.212 0V13.23c0-.611-.495-1.105-1.106-1.105z"/><path d="M22.081 12.125c-.61 0-1.106.495-1.106 1.106v4.422a1.106 1.106 0 0 0 2.212 0V13.23a1.106 1.106 0 0 0-1.106-1.105z"/><path d="M11.578 20.969h1.106v2.764a1.106 1.106 0 0 0 2.212 0v-2.764h2.211v2.764a1.106 1.106 0 0 0 2.212 0v-2.764h1.106v-8.292h-8.844v8.292z"/><path d="M18.611 8.56l.568-.983a.275.275 0 0 0-.102-.378.275.275 0 0 0-.378.102l-.553.959A4.388 4.388 0 0 0 16 7.702c-.779 0-1.51.203-2.146.557L13.3 7.3a.277.277 0 0 0-.479.277l.568.984a4.413 4.413 0 0 0-1.811 3.564h8.844c0-1.465-.715-2.76-1.811-3.565zm-4.269 1.906a.552.552 0 1 1-.001-1.105.552.552 0 0 1 .001 1.105zm3.316 0a.552.552 0 1 1-.001-1.105.552.552 0 0 1 .001 1.105z"/></g><path fill="#414752" d="M16 1c8.271 0 15 6.729 15 15s-6.729 15-15 15S1 24.271 1 16 7.729 1 16 1m0-1C7.164 0 0 7.164 0 16c0 8.837 7.164 16 16 16s16-7.163 16-16c0-8.836-7.164-16-16-16z" id="Shopping_10_106_"/></g><metadata><rdf:RDF xmlns:rdf="http://www.w3.org/1999/02/22-rdf-syntax-ns#" xmlns:rdfs="http://www.w3.org/2000/01/rdf-schema#" xmlns:dc="http://purl.org/dc/elements/1.1/"><rdf:Description about="https://iconscout.com/legal#licenses" dc:title="android,social,media,online" dc:description="android,social,media,online" dc:publisher="Iconscout" dc:date="2017-09-15" dc:format="image/svg+xml" dc:language="en"><dc:creator><rdf:Bag><rdf:li>Epicflaticon by Alfredo</rdf:li></rdf:Bag></dc:creator></rdf:Description></rdf:RDF></metadata></svg>