<?xml version="1.0" encoding="UTF-8"?><svg xmlns="http://www.w3.org/2000/svg" xmlns:xlink="http://www.w3.org/1999/xlink" version="1.1" x="0px" y="0px" viewBox="0 0 32 32" xml:space="preserve"><g id="OUTLINE_copy"><path fill="#414752" d="M23.917 18.462V15.5c0-.82-.672-1.492-1.492-1.492h-.735a.749.749 0 0 1-.756-.735 5.2 5.2 0 0 0-5.189-5.189h-2.227a4.448 4.448 0 0 0-4.433 4.433v5.946c0 2.437 1.996 4.454 4.433 4.454h5.946c2.435 0 4.453-2.018 4.453-4.455zm-10.401-.756h5.189c.421 0 .756.337.756.756 0 .4-.336.735-.756.735h-5.189a.744.744 0 0 1-.735-.735c0-.42.336-.756.735-.756zm3.551-5.19c0 .42-.315.756-.735.756h-2.816a.749.749 0 0 1-.735-.756c0-.399.336-.735.735-.735h2.816a.73.73 0 0 1 .735.735z"/><path fill="#414752" d="M16 1c8.271 0 15 6.729 15 15s-6.729 15-15 15S1 24.271 1 16 7.729 1 16 1m0-1C7.164 0 0 7.163 0 16s7.163 16 16 16c8.836 0 16-7.163 16-16S24.836 0 16 0z" id="Shopping_10_105_"/></g><metadata><rdf:RDF xmlns:rdf="http://www.w3.org/1999/02/22-rdf-syntax-ns#" xmlns:rdfs="http://www.w3.org/2000/01/rdf-schema#" xmlns:dc="http://purl.org/dc/elements/1.1/"><rdf:Description about="https://iconscout.com/legal#licenses" dc:title="blogger,social,media,online" dc:description="blogger,social,media,online" dc:publisher="Iconscout" dc:date="2017-09-15" dc:format="image/svg+xml" dc:language="en"><dc:creator><rdf:Bag><rdf:li>Epicflaticon by Alfredo</rdf:li></rdf:Bag></dc:creator></rdf:Description></rdf:RDF></metadata></svg>