<?xml version="1.0" encoding="UTF-8"?><svg xmlns="http://www.w3.org/2000/svg" xmlns:xlink="http://www.w3.org/1999/xlink" version="1.1" x="0px" y="0px" viewBox="0 0 32 32" xml:space="preserve"><g id="OUTLINE_copy"><path fill="#414752" d="M19.753 21.78l1.588-.952v.867l-5.353 3.378-5.234-3.403v-.816l1.566.928.174.103.161-.123 3.381-2.595 3.38 2.595.162.123.175-.105zm-3.706-10.106l5.148 2.957L16 18.074l-5.162-3.252 5.209-3.148zm8.938.173l-5.303-3.389-3.646 3.058-3.564-3.058-5.457 3.555 3.758 2.859-3.759 2.858 3.739 2.215 1.718 1.017 3.564-2.735 3.563 2.735 1.742-1.045 3.645-2.187-3.48-2.984 3.48-2.899z"/><path fill="#414752" d="M16 1c8.271 0 15 6.729 15 15s-6.729 15-15 15S1 24.271 1 16 7.729 1 16 1m0-1C7.163 0 0 7.163 0 16s7.163 16 16 16 16-7.163 16-16S24.837 0 16 0z" id="Shopping_10_118_"/></g><metadata><rdf:RDF xmlns:rdf="http://www.w3.org/1999/02/22-rdf-syntax-ns#" xmlns:rdfs="http://www.w3.org/2000/01/rdf-schema#" xmlns:dc="http://purl.org/dc/elements/1.1/"><rdf:Description about="https://iconscout.com/legal#licenses" dc:title="dropbox,social,media,online" dc:description="dropbox,social,media,online" dc:publisher="Iconscout" dc:date="2017-09-15" dc:format="image/svg+xml" dc:language="en"><dc:creator><rdf:Bag><rdf:li>Epicflaticon by Alfredo</rdf:li></rdf:Bag></dc:creator></rdf:Description></rdf:RDF></metadata></svg>