<?xml version="1.0" encoding="UTF-8"?><svg xmlns="http://www.w3.org/2000/svg" xmlns:xlink="http://www.w3.org/1999/xlink" version="1.1" x="0px" y="0px" viewBox="0 0 32 32" xml:space="preserve"><g id="OUTLINE_copy"><g fill="#414752"><path d="M18.886 8.455h-4.65c-2.127 0-4.13 1.493-4.13 3.359 0 1.907 1.45 3.39 3.614 3.39.151 0 .297-.034.441-.045a1.85 1.85 0 0 0-.24.871c0 .53.284.954.644 1.304-.27 0-.535.004-.822.004-2.635.001-4.664 1.678-4.664 3.418 0 1.714 2.224 2.788 4.859 2.788 3.005 0 4.664-1.706 4.664-3.42 0-1.374-.406-2.198-1.659-3.086-.429-.303-1.249-1.041-1.249-1.476 0-.508.145-.759.911-1.358.784-.613 1.34-1.344 1.34-2.347 0-1.193-.513-2.648-1.511-2.648h1.697l.755-.754zm-1.561 11.372c.036.16.058.324.058.49 0 1.385-.894 2.468-3.455 2.468-1.822 0-3.137-1.153-3.137-2.538 0-1.357 1.632-2.488 3.454-2.468.424.005.821.073 1.18.188.99.688 1.699 1.077 1.9 1.86zm-2.918-5.167c-1.223-.035-2.385-1.368-2.596-2.972-.21-1.607.61-2.836 1.832-2.8 1.222.038 2.385 1.326 2.596 2.932.211 1.605-.609 2.876-1.832 2.84z"/><path d="M22.658 14.485v-2.263h-1.509v2.263h-2.263v1.509h2.263v2.263h1.509v-2.263h2.263v-1.509z"/></g><path fill="#414752" d="M16 1c8.271 0 15 6.729 15 15s-6.729 15-15 15S1 24.271 1 16 7.729 1 16 1m0-1C7.164 0 0 7.163 0 16s7.164 16 16 16c8.837 0 16-7.163 16-16S24.836 0 16 0z" id="Shopping_10_99_"/></g><metadata><rdf:RDF xmlns:rdf="http://www.w3.org/1999/02/22-rdf-syntax-ns#" xmlns:rdfs="http://www.w3.org/2000/01/rdf-schema#" xmlns:dc="http://purl.org/dc/elements/1.1/"><rdf:Description about="https://iconscout.com/legal#licenses" dc:title="google,plus,social,media,online" dc:description="google,plus,social,media,online" dc:publisher="Iconscout" dc:date="2017-09-15" dc:format="image/svg+xml" dc:language="en"><dc:creator><rdf:Bag><rdf:li>Epicflaticon by Alfredo</rdf:li></rdf:Bag></dc:creator></rdf:Description></rdf:RDF></metadata></svg>