<?xml version="1.0" encoding="UTF-8"?><svg xmlns="http://www.w3.org/2000/svg" xmlns:xlink="http://www.w3.org/1999/xlink" version="1.1" x="0px" y="0px" viewBox="0 0 32 32" xml:space="preserve"><g id="OUTLINE_copy"><path fill-rule="evenodd" clip-rule="evenodd" fill="#414752" d="M16.1 6.995c-4.017 0-7.192 3.368-7.192 7.432 0 4.246 5.584 10.578 7.192 10.578 1.409 0 6.993-6.332 6.993-10.578-.001-4.064-3.176-7.432-6.993-7.432zm.023 11.294c-2.508 0-4.44-1.913-4.44-4.152a4.36 4.36 0 0 1 .927-2.702c.008.92.763 1.664 1.695 1.664.937 0 1.696-.752 1.696-1.679 0-.681-.412-1.265-1.001-1.528.36-.089.731-.151 1.124-.151 2.261 0 4.194 1.913 4.194 4.396-.001 2.239-1.934 4.152-4.195 4.152z"/><path fill="#414752" d="M16 1c8.271 0 15 6.729 15 15s-6.729 15-15 15S1 24.271 1 16 7.729 1 16 1m0-1C7.163 0 0 7.164 0 16s7.163 16 16 16 16-7.163 16-16S24.836 0 16 0z" id="Shopping_10_102_"/></g><metadata><rdf:RDF xmlns:rdf="http://www.w3.org/1999/02/22-rdf-syntax-ns#" xmlns:rdfs="http://www.w3.org/2000/01/rdf-schema#" xmlns:dc="http://purl.org/dc/elements/1.1/"><rdf:Description about="https://iconscout.com/legal#licenses" dc:title="periscope,social,media,online" dc:description="periscope,social,media,online" dc:publisher="Iconscout" dc:date="2017-09-15" dc:format="image/svg+xml" dc:language="en"><dc:creator><rdf:Bag><rdf:li>Epicflaticon by Alfredo</rdf:li></rdf:Bag></dc:creator></rdf:Description></rdf:RDF></metadata></svg>