<?xml version="1.0" encoding="UTF-8"?><svg xmlns="http://www.w3.org/2000/svg" xmlns:xlink="http://www.w3.org/1999/xlink" version="1.1" x="0px" y="0px" viewBox="0 0 32 32" xml:space="preserve"><g id="OUTLINE_copy"><path fill="#414752" d="M20.925 21.379h2.454c0-7.035-5.723-12.762-12.757-12.762v2.447c5.679-.001 10.303 4.628 10.303 10.315zm-8.605.004c.941 0 1.701-.756 1.701-1.693a1.7 1.7 0 0 0-3.4 0c0 .937.762 1.693 1.699 1.693zm4.268-.003h2.457c0-4.646-3.78-8.425-8.424-8.425V15.4c1.593 0 3.091.623 4.218 1.751a5.941 5.941 0 0 1 1.749 4.229z"/><path fill="#414752" d="M16 1c8.271 0 15 6.729 15 15s-6.729 15-15 15S1 24.271 1 16 7.729 1 16 1m0-1C7.164 0 0 7.163 0 16s7.164 16 16 16 16-7.163 16-16S24.836 0 16 0z" id="Shopping_10_121_"/></g><metadata><rdf:RDF xmlns:rdf="http://www.w3.org/1999/02/22-rdf-syntax-ns#" xmlns:rdfs="http://www.w3.org/2000/01/rdf-schema#" xmlns:dc="http://purl.org/dc/elements/1.1/"><rdf:Description about="https://iconscout.com/legal#licenses" dc:title="rss,social,media,online" dc:description="rss,social,media,online" dc:publisher="Iconscout" dc:date="2017-09-15" dc:format="image/svg+xml" dc:language="en"><dc:creator><rdf:Bag><rdf:li>Epicflaticon by Alfredo</rdf:li></rdf:Bag></dc:creator></rdf:Description></rdf:RDF></metadata></svg>