<?xml version="1.0" encoding="UTF-8"?><svg xmlns="http://www.w3.org/2000/svg" xmlns:xlink="http://www.w3.org/1999/xlink" version="1.1" x="0px" y="0px" viewBox="0 0 32 32" xml:space="preserve"><g id="OUTLINE_copy"><path fill="#414752" d="M16.113 23.404a3.13 3.13 0 0 1-.137-.003 1.3 1.3 0 0 1-.089.003c-1.061 0-1.742-.481-2.4-.947-.455-.321-.884-.624-1.389-.709a4.467 4.467 0 0 0-.729-.062c-.427 0-.765.066-1.011.114-.15.029-.279.054-.377.054-.102 0-.214-.022-.262-.187a5.79 5.79 0 0 1-.101-.415c-.075-.344-.129-.556-.273-.578-1.682-.26-2.164-.614-2.271-.866a.328.328 0 0 1-.026-.108.189.189 0 0 1 .158-.197c2.586-.426 3.746-3.069 3.794-3.182l.004-.009c.158-.321.189-.599.092-.827-.177-.418-.756-.602-1.14-.724-.094-.03-.183-.058-.253-.085-.765-.302-.828-.613-.798-.771.051-.269.411-.457.703-.457.08 0 .15.014.209.042.344.161.654.243.921.243.37 0 .531-.155.551-.176-.009-.175-.021-.358-.033-.546-.077-1.223-.172-2.742.214-3.609 1.159-2.6 3.618-2.802 4.344-2.802l.318-.003h.043c.728 0 3.192.202 4.352 2.803.387.868.291 2.388.214 3.61l-.003.053-.03.494c.018.019.167.162.502.175.255-.01.547-.091.868-.241a.654.654 0 0 1 .27-.053c.109 0 .219.021.31.059l.006.002c.26.092.43.274.434.464.003.179-.133.448-.804.714-.07.027-.158.056-.253.085-.384.122-.962.305-1.14.724-.097.228-.066.506.092.827l.004.009c.048.112 1.207 2.755 3.794 3.181a.189.189 0 0 1 .158.198.322.322 0 0 1-.026.108c-.107.25-.588.604-2.271.864-.137.021-.191.2-.273.576a5.62 5.62 0 0 1-.102.412c-.036.123-.112.18-.241.18h-.021c-.089 0-.216-.016-.377-.047a5.004 5.004 0 0 0-1.011-.107c-.237 0-.483.021-.73.062-.505.084-.934.387-1.387.708-.655.465-1.336.947-2.397.947z"/><path fill="#414752" d="M16 1c8.271 0 15 6.729 15 15s-6.729 15-15 15S1 24.271 1 16 7.729 1 16 1m0-1C7.163 0 0 7.164 0 16s7.163 16 16 16 16-7.163 16-16S24.837 0 16 0z" id="Shopping_10_110_"/></g><metadata><rdf:RDF xmlns:rdf="http://www.w3.org/1999/02/22-rdf-syntax-ns#" xmlns:rdfs="http://www.w3.org/2000/01/rdf-schema#" xmlns:dc="http://purl.org/dc/elements/1.1/"><rdf:Description about="https://iconscout.com/legal#licenses" dc:title="snapchat,social,media,online" dc:description="snapchat,social,media,online" dc:publisher="Iconscout" dc:date="2017-09-15" dc:format="image/svg+xml" dc:language="en"><dc:creator><rdf:Bag><rdf:li>Epicflaticon by Alfredo</rdf:li></rdf:Bag></dc:creator></rdf:Description></rdf:RDF></metadata></svg>