<?xml version="1.0" encoding="UTF-8"?><svg xmlns="http://www.w3.org/2000/svg" xmlns:xlink="http://www.w3.org/1999/xlink" version="1.1" x="0px" y="0px" viewBox="0 0 32 32" xml:space="preserve"><g id="OUTLINE_copy"><path fill="#414752" d="M7.842 14.334s1.403-1.106 1.871-.553c.467.553 2.253 7.229 2.849 8.461.52 1.08 1.955 2.508 3.528 1.488 1.573-1.019 6.802-5.484 7.738-10.757.936-5.271-6.293-4.167-7.058.426 1.914-1.149 2.935.466 1.956 2.296-.978 1.828-1.871 3.02-2.338 3.02-.467 0-.826-1.223-1.361-3.361-.553-2.21-.55-6.191-2.848-5.739-2.168.426-5.017 3.827-5.017 3.827l.68.892z"/><path fill="#414752" d="M16 1c8.271 0 15 6.729 15 15s-6.729 15-15 15S1 24.271 1 16 7.729 1 16 1m0-1C7.163 0 0 7.164 0 16s7.163 16 16 16 16-7.164 16-16S24.837 0 16 0z" id="Shopping_10_115_"/></g><metadata><rdf:RDF xmlns:rdf="http://www.w3.org/1999/02/22-rdf-syntax-ns#" xmlns:rdfs="http://www.w3.org/2000/01/rdf-schema#" xmlns:dc="http://purl.org/dc/elements/1.1/"><rdf:Description about="https://iconscout.com/legal#licenses" dc:title="vimeo,social,media,online" dc:description="vimeo,social,media,online" dc:publisher="Iconscout" dc:date="2017-09-15" dc:format="image/svg+xml" dc:language="en"><dc:creator><rdf:Bag><rdf:li>Epicflaticon by Alfredo</rdf:li></rdf:Bag></dc:creator></rdf:Description></rdf:RDF></metadata></svg>