<?xml version="1.0" encoding="UTF-8"?><svg xmlns="http://www.w3.org/2000/svg" xmlns:xlink="http://www.w3.org/1999/xlink" version="1.1" id="Layer_1" x="0px" y="0px" viewBox="0 0 32 32" xml:space="preserve"><g id="OUTLINE_copy"><path fill="#414752" d="M18.457 11.503c0-1.267 2.547-1.924 2.547.219a13.24 13.24 0 0 1-.428 3.257h2.648c.201-1.2.193-2.386.193-3.783 0-3.935-7.417-4.591-7.417.395 0 3.501 1.685 5.343 3.447 6.313C17.979 20.724 16 22.261 16 22.261c-5.54-4.416-5.003-11.895-5.003-11.895H8.583c.046 10.102 5.496 13.645 6.167 14.17.67.525.803.482 1.609.437.802-.043 2.634-1.838 4.868-5.247.215-.331.409-.646.585-.953.935.205 1.603.21 1.603.21V16.84c-4.69-.44-4.958-4.374-4.958-5.337z"/><path fill="#414752" d="M16 1c8.271 0 15 6.729 15 15s-6.729 15-15 15S1 24.271 1 16 7.729 1 16 1m0-1C7.163 0 0 7.164 0 16s7.163 16 16 16 16-7.164 16-16S24.837 0 16 0z" id="Shopping_10_113_"/></g><metadata><rdf:RDF xmlns:rdf="http://www.w3.org/1999/02/22-rdf-syntax-ns#" xmlns:rdfs="http://www.w3.org/2000/01/rdf-schema#" xmlns:dc="http://purl.org/dc/elements/1.1/"><rdf:Description about="https://iconscout.com/legal#licenses" dc:title="vine,social,media,online" dc:description="vine,social,media,online" dc:publisher="Iconscout" dc:date="2017-09-15" dc:format="image/svg+xml" dc:language="en"><dc:creator><rdf:Bag><rdf:li>Epicflaticon by Alfredo</rdf:li></rdf:Bag></dc:creator></rdf:Description></rdf:RDF></metadata></svg>