<?xml version="1.0" encoding="UTF-8"?><svg xmlns="http://www.w3.org/2000/svg" xmlns:xlink="http://www.w3.org/1999/xlink" version="1.1" x="0px" y="0px" viewBox="0 0 32 32" xml:space="preserve"><g id="OUTLINE_copy"><path fill="#414752" d="M15.338 15.833c-.421-.389-.888-.935-1.091-1.419-.031-.062-.093-.218 0-.343.187-.249.218-.265.421-.499.14-.172.249-.327.203-.468l-.701-1.824c-.063-.125-.249-.14-.468-.156-.187 0-.389 0-.53.031-.312.109-.95.951-1.028 1.559-.172 1.325 1.028 3.087 2.228 4.178 1.2 1.107 3.054 2.152 4.363 1.855.608-.14 1.387-.842 1.449-1.169.031-.14.016-.343-.016-.53-.016-.218-.062-.374-.187-.436l-1.589-.733c-.141-.078-.281-.016-.421.156-.171.234-.25.327-.452.577-.109.14-.187.234-.311.249-.141.031-.327-.047-.359-.047-.499-.17-1.075-.591-1.511-.981zm-5.236 5.598l.904-2.292A6.588 6.588 0 0 1 9.4 14.82c0-3.648 2.961-6.595 6.608-6.595a6.586 6.586 0 0 1 6.591 6.595c0 3.648-2.945 6.611-6.591 6.611a6.488 6.488 0 0 1-3.896-1.278l-2.01 1.278zm-1.107-2.246l-1.247 4.989 4.457-2.027a8.222 8.222 0 0 0 3.803.936c4.55 0 8.243-3.695 8.243-8.264 0-4.552-3.694-8.248-8.243-8.248-4.566 0-8.259 3.695-8.259 8.248 0 1.607.467 3.104 1.246 4.366z"/><path fill="#414752" d="M16 1c8.271 0 15 6.729 15 15s-6.729 15-15 15S1 24.271 1 16 7.729 1 16 1m0-1C7.163 0 0 7.164 0 16s7.164 16 16 16 16-7.163 16-16S24.836 0 16 0z" id="Shopping_10_101_"/></g><metadata><rdf:RDF xmlns:rdf="http://www.w3.org/1999/02/22-rdf-syntax-ns#" xmlns:rdfs="http://www.w3.org/2000/01/rdf-schema#" xmlns:dc="http://purl.org/dc/elements/1.1/"><rdf:Description about="https://iconscout.com/legal#licenses" dc:title="whatsapp,social,media,online" dc:description="whatsapp,social,media,online" dc:publisher="Iconscout" dc:date="2017-09-15" dc:format="image/svg+xml" dc:language="en"><dc:creator><rdf:Bag><rdf:li>Epicflaticon by Alfredo</rdf:li></rdf:Bag></dc:creator></rdf:Description></rdf:RDF></metadata></svg>