<?xml version="1.0" encoding="UTF-8"?><svg xmlns="http://www.w3.org/2000/svg" xmlns:xlink="http://www.w3.org/1999/xlink" version="1.1" x="0px" y="0px" viewBox="0 0 32 32" xml:space="preserve"><g id="OUTLINE_copy"><g fill="#414752"><path d="M20.599 18.747c-.13 0-.224.037-.281.114-.057.073-.084.198-.084.373v.419h.722v-.419c0-.174-.029-.299-.087-.373-.054-.078-.146-.114-.27-.114z"/><path d="M17.783 18.732a.381.381 0 0 0-.173.04.59.59 0 0 0-.168.127v2.588a.71.71 0 0 0 .194.146.465.465 0 0 0 .197.045c.1 0 .173-.029.22-.088.047-.058.072-.152.072-.286v-2.145c0-.14-.029-.247-.087-.319a.315.315 0 0 0-.255-.108z"/><path d="M22.321 15.512c-.671-.67-6.324-.679-6.324-.679s-5.652.008-6.325.678c-.672.672-.674 3.985-.674 4.004 0 .025.001 3.332.674 4.004.672.67 6.325.684 6.325.684s5.653-.014 6.324-.684c.675-.673.681-4.004.681-4.004 0-.018-.007-3.331-.681-4.003zm-9.012 1.953h-.952v4.813h-.921v-4.813h-.952v-.818h2.825v.818zM16 22.277h-.815v-.457a1.747 1.747 0 0 1-.472.385.985.985 0 0 1-.475.132c-.19 0-.33-.06-.427-.185-.094-.124-.143-.308-.143-.556v-3.473h.816v3.186c0 .099.017.169.05.214.036.044.092.066.168.066.06 0 .137-.029.228-.088.092-.058.175-.132.254-.222v-3.156H16v4.154zm2.964-.858c0 .294-.064.519-.192.676-.127.157-.313.234-.555.234a.957.957 0 0 1-.427-.09 1.041 1.041 0 0 1-.349-.281v.319h-.825v-5.631h.825v1.813c.111-.126.227-.224.35-.289a.799.799 0 0 1 .377-.099c.259 0 .456.088.592.264.138.177.205.437.205.777v2.307zm2.832-1.118h-1.562v.781c0 .219.027.371.08.456.055.085.146.126.277.126.135 0 .23-.036.284-.107.053-.072.082-.229.082-.474v-.19h.84v.213c0 .426-.102.747-.307.964-.204.215-.51.322-.916.322-.365 0-.654-.113-.864-.342-.21-.227-.316-.541-.316-.942v-1.865c0-.359.117-.654.347-.881.231-.227.528-.34.894-.34.374 0 .661.105.862.315.201.21.3.511.3.906v1.058z"/><path d="M20.595 13.091h-.92v-.505a1.91 1.91 0 0 1-.529.425 1.137 1.137 0 0 1-.533.146c-.214 0-.373-.068-.481-.205-.107-.136-.161-.34-.161-.614V8.515h.918v3.508c0 .108.021.187.059.235.037.049.101.073.187.073a.524.524 0 0 0 .256-.096c.103-.064.198-.146.283-.247V8.515h.92l.001 4.576z"/><path d="M16.862 8.732c-.244-.222-.556-.333-.936-.333-.417 0-.751.105-.998.315-.248.21-.372.492-.372.847v2.372c0 .389.121.698.361.928.242.229.564.344.966.344.418 0 .745-.111.986-.334.237-.223.357-.53.357-.921V9.588a1.116 1.116 0 0 0-.364-.856zm-.574 3.288a.384.384 0 0 1-.11.289.417.417 0 0 1-.297.104c-.122 0-.216-.034-.281-.102a.41.41 0 0 1-.099-.291V9.527c0-.1.036-.181.105-.243a.403.403 0 0 1 .274-.092c.121 0 .219.03.294.092a.3.3 0 0 1 .113.243v2.493z"/><path d="M12.051 6.888h-1.043l1.233 3.746v2.457h1.035v-2.573l1.205-3.63h-1.053l-.639 2.48h-.065z"/></g><path fill="#414752" d="M16 1c8.271 0 15 6.729 15 15s-6.729 15-15 15S1 24.271 1 16 7.729 1 16 1m0-1C7.163 0 0 7.164 0 16s7.163 16 16 16 16-7.164 16-16S24.837 0 16 0z" id="Shopping_10_112_"/></g><metadata><rdf:RDF xmlns:rdf="http://www.w3.org/1999/02/22-rdf-syntax-ns#" xmlns:rdfs="http://www.w3.org/2000/01/rdf-schema#" xmlns:dc="http://purl.org/dc/elements/1.1/"><rdf:Description about="https://iconscout.com/legal#licenses" dc:title="youtube,social,media,online" dc:description="youtube,social,media,online" dc:publisher="Iconscout" dc:date="2017-09-15" dc:format="image/svg+xml" dc:language="en"><dc:creator><rdf:Bag><rdf:li>Epicflaticon by Alfredo</rdf:li></rdf:Bag></dc:creator></rdf:Description></rdf:RDF></metadata></svg>